<svg width="32" height="32" viewBox="0 0 32 32" fill="none" xmlns="http://www.w3.org/2000/svg">
<path d="M8.34649 28.5179H7.99992C6.74284 28.5179 6.11431 28.5179 5.72377 28.1273C5.33325 27.7368 5.33325 27.1083 5.33325 25.8512V24.3685C5.33325 23.6772 5.33325 23.3316 5.51083 23.0229C5.6884 22.7141 5.95628 22.5584 6.49205 22.2468C10.0193 20.1952 15.0286 19.0404 18.3721 21.0345C18.5966 21.1685 18.7987 21.3303 18.9713 21.5241C19.7154 22.36 19.6613 23.6215 18.8037 24.37C18.6225 24.528 18.4295 24.648 18.2351 24.6896C18.3949 24.6711 18.5479 24.6499 18.6941 24.6265C19.9093 24.4327 20.9293 23.7833 21.8631 23.0779L24.2727 21.2577C25.1222 20.616 26.383 20.6159 27.2326 21.2573C27.9975 21.8349 28.2314 22.7859 27.7478 23.5609C27.1839 24.4649 26.3894 25.6213 25.6265 26.3279C24.8625 27.0355 23.7251 27.6672 22.7966 28.1153C21.7679 28.6119 20.6317 28.8979 19.4758 29.0851C17.1317 29.4644 14.6887 29.4065 12.3684 28.9285C11.0566 28.6583 9.6943 28.5179 8.34649 28.5179Z" fill="white"/>
<path d="M15.1456 12.2716C16.5612 13.6871 18.8561 13.6871 20.2717 12.2716C21.6872 10.8561 21.6872 8.56105 20.2717 7.14554L19.3073 6.18115C18.9061 6.98826 18.2365 8.03941 17.138 9.13791C16.0394 10.2365 14.9882 10.9061 14.1812 11.3071L15.1456 12.2716Z" fill="white"/>
<path d="M16.8545 3.72814C15.4389 2.31262 13.1439 2.31262 11.7284 3.72814C10.3129 5.14365 10.3129 7.43866 11.7284 8.85417L13.1766 10.3024C13.2773 10.2598 13.3865 10.2108 13.5031 10.1546C14.2001 9.8187 15.1666 9.22373 16.1953 8.19506C17.2239 7.1664 17.819 6.19978 18.155 5.5027C18.2111 5.38614 18.2601 5.27706 18.3027 5.17641L16.8545 3.72814Z" fill="white"/>
</svg>
