<svg width="32" height="32" viewBox="0 0 32 32" fill="none" xmlns="http://www.w3.org/2000/svg">
<path d="M14.1021 11.6057C14.9465 10.0909 15.3687 9.3335 15.9999 9.3335C16.6311 9.3335 17.0534 10.0909 17.8978 11.6057L18.1163 11.9977C18.3562 12.4281 18.4762 12.6433 18.6633 12.7854C18.8503 12.9274 19.0834 12.9801 19.5494 13.0855L19.9735 13.1815C21.6134 13.5526 22.4333 13.738 22.6283 14.3654C22.8234 14.9926 22.2645 15.6462 21.1466 16.9535L20.8573 17.2916C20.5397 17.6631 20.3809 17.8488 20.3094 18.0787C20.2379 18.3084 20.2619 18.5563 20.3099 19.0519L20.3537 19.5031C20.5227 21.2472 20.6071 22.1194 20.0965 22.507C19.5858 22.8947 18.8182 22.5412 17.2829 21.8343L16.8857 21.6514C16.4493 21.4506 16.2311 21.35 15.9999 21.35C15.7687 21.35 15.5506 21.4506 15.1142 21.6514L14.717 21.8343C13.1817 22.5412 12.414 22.8947 11.9033 22.507C11.3927 22.1194 11.4772 21.2472 11.6462 19.5031L11.6899 19.0519C11.7379 18.5563 11.7619 18.3084 11.6905 18.0787C11.619 17.8488 11.4602 17.6631 11.1425 17.2916L10.8533 16.9535C9.73541 15.6462 9.17647 14.9926 9.37153 14.3654C9.5666 13.738 10.3865 13.5526 12.0263 13.1815L12.4505 13.0855C12.9165 12.9801 13.1495 12.9274 13.3366 12.7854C13.5237 12.6433 13.6437 12.4281 13.8835 11.9977L14.1021 11.6057Z" fill="white"/>
<path fill-rule="evenodd" clip-rule="evenodd" d="M16.0001 1.6665C16.5523 1.6665 17.0001 2.11422 17.0001 2.6665V5.33317C17.0001 5.88545 16.5523 6.33317 16.0001 6.33317C15.4478 6.33317 15.0001 5.88545 15.0001 5.33317V2.6665C15.0001 2.11422 15.4478 1.6665 16.0001 1.6665ZM24.7073 7.29257C25.0978 7.6831 25.0978 8.31626 24.7073 8.70678L24.2497 9.16448C23.8591 9.555 23.2259 9.555 22.8354 9.16448C22.4449 8.77394 22.4449 8.14078 22.8354 7.75026L23.2931 7.29257C23.6837 6.90205 24.3169 6.90205 24.7073 7.29257ZM7.29297 7.29273C7.68349 6.90221 8.31667 6.90221 8.70719 7.29273L9.16487 7.75041C9.55539 8.14093 9.55539 8.7741 9.16487 9.16462C8.77435 9.55514 8.14117 9.55514 7.75065 9.16462L7.29297 8.70694C6.90245 8.31642 6.90245 7.68325 7.29297 7.29273ZM1.66675 15.9998C1.66675 15.4476 2.11447 14.9998 2.66675 14.9998H5.33341C5.88569 14.9998 6.33341 15.4476 6.33341 15.9998C6.33341 16.5521 5.88569 16.9998 5.33341 16.9998H2.66675C2.11447 16.9998 1.66675 16.5521 1.66675 15.9998ZM25.6667 15.9998C25.6667 15.4476 26.1145 14.9998 26.6667 14.9998H29.3334C29.8857 14.9998 30.3334 15.4476 30.3334 15.9998C30.3334 16.5521 29.8857 16.9998 29.3334 16.9998H26.6667C26.1145 16.9998 25.6667 16.5521 25.6667 15.9998ZM9.16472 22.8352C9.55524 23.2257 9.55524 23.8589 9.16472 24.2494L8.70732 24.7068C8.3168 25.0973 7.68363 25.0973 7.29311 24.7068C6.90259 24.3162 6.90259 23.6832 7.29311 23.2926L7.75051 22.8352C8.14103 22.4446 8.77419 22.4446 9.16472 22.8352ZM22.8354 22.8354C23.2259 22.445 23.8591 22.445 24.2497 22.8354L24.707 23.2929C25.0975 23.6834 25.0975 24.3166 24.707 24.7072C24.3165 25.0976 23.6833 25.0976 23.2927 24.7072L22.8354 24.2497C22.4449 23.8592 22.4449 23.226 22.8354 22.8354ZM16.0001 25.6665C16.5523 25.6665 17.0001 26.1142 17.0001 26.6665V29.3332C17.0001 29.8854 16.5523 30.3332 16.0001 30.3332C15.4478 30.3332 15.0001 29.8854 15.0001 29.3332V26.6665C15.0001 26.1142 15.4478 25.6665 16.0001 25.6665Z" fill="white"/>
</svg>
