<svg width="32" height="32" viewBox="0 0 32 32" fill="none" xmlns="http://www.w3.org/2000/svg">
<path d="M7.55929 13.219L11.6421 7.69495C14.2813 4.1242 15.6009 2.33884 16.8321 2.71612C18.0631 3.09341 18.0631 5.28316 18.0631 9.66267V10.0756C18.0631 11.6552 18.0631 12.445 18.5679 12.9404L18.5946 12.9661C19.1102 13.451 19.9322 13.451 21.5762 13.451C24.5347 13.451 26.0141 13.451 26.5139 14.3482C26.5222 14.363 26.5302 14.3781 26.5381 14.3932C27.0101 15.3044 26.1535 16.4632 24.4405 18.7808L20.3577 24.3048C17.7185 27.8754 16.3989 29.6609 15.1677 29.2836C13.9366 28.9062 13.9366 26.7165 13.9366 22.3369L13.9367 21.9242C13.9367 20.3445 13.9367 19.5548 13.4319 19.0593L13.4053 19.0337C12.8897 18.5488 12.0676 18.5488 10.4236 18.5488C7.4651 18.5488 5.98586 18.5488 5.48592 17.6514C5.47764 17.6366 5.46959 17.6217 5.46178 17.6065C4.98984 16.6954 5.84632 15.5366 7.55929 13.219Z" fill="white"/>
</svg>
