<svg width="44" height="40" viewBox="0 0 44 40" fill="none" xmlns="http://www.w3.org/2000/svg">
<g clip-path="url(#clip0_152_427)">
<path d="M29.3374 25.3982L30.6856 23.552C31.4049 22.567 31.8799 21.9166 32.0736 21.4459L32.094 21.4578C33.0505 22.01 34.2737 21.6823 34.826 20.7257C35.3783 19.7691 35.0505 18.5459 34.094 17.9937C33.1374 17.4414 31.9142 17.7691 31.3619 18.7257C31.1122 19.1583 31.0424 19.6455 31.1294 20.1005C30.6187 20.1155 29.8435 20.3216 28.6764 20.6318C27.7774 20.8709 27.3278 20.9903 26.984 20.8507C26.7935 20.7731 26.6283 20.6444 26.5068 20.4786C26.2876 20.1793 26.2944 19.7147 26.3082 18.7855L26.381 13.8876C26.3894 13.3143 26.3966 12.8345 26.3827 12.4372C27.3518 12.4874 28.3139 12.005 28.8324 11.1069C29.5688 9.83148 29.1319 8.20059 27.8564 7.46419C26.5809 6.72779 24.95 7.16481 24.2136 8.44026C23.6951 9.33836 23.7584 10.4127 24.2865 11.2269C23.9354 11.4136 23.5235 11.6596 23.0312 11.9536L18.8259 14.4656C18.0281 14.9422 17.6292 15.1804 17.2604 15.1402C17.0561 15.1179 16.8619 15.0391 16.6995 14.9129C16.4066 14.685 16.2854 14.2359 16.0429 13.3378C15.728 12.1721 15.5188 11.3976 15.2766 10.9478C15.7141 10.7957 16.101 10.4917 16.3508 10.0591C16.9031 9.10247 16.5754 7.8793 15.6188 7.32701C14.6622 6.77472 13.439 7.10247 12.8867 8.05906C12.3344 9.01565 12.6622 10.2388 13.6188 10.7911L13.6393 10.8028C13.3285 11.2059 13.0027 11.9425 12.5093 13.0579L11.5846 15.1486C11.0713 16.309 10.5688 17.405 10.1482 18.4099L27.2311 28.2727C27.8912 27.4061 28.589 26.4229 29.3374 25.3982Z" fill="#FDC900"/>
<path d="M14.6002 27.5234L17.1125 28.974C20.3873 30.8646 22.0245 31.8099 23.6815 31.4628C24.4049 31.3113 25.1509 30.7162 25.9469 29.8406L9.43237 20.3059C9.07212 21.4331 8.92985 22.3768 9.16022 23.0789C9.68814 24.6875 11.3255 25.6328 14.6002 27.5234Z" fill="#FDC900"/>
</g>
<defs>
<clipPath id="clip0_152_427">
<rect width="32" height="32" fill="white" transform="translate(16 -4) rotate(30)"/>
</clipPath>
</defs>
</svg>
