<svg width="32" height="32" viewBox="0 0 32 32" fill="none" xmlns="http://www.w3.org/2000/svg">
<path d="M2.66663 12.363C2.66663 18.8468 8.02587 22.302 11.9489 25.3947C13.3333 26.486 14.6666 27.5135 16 27.5135C17.3333 27.5135 18.6666 26.486 20.051 25.3947C23.9741 22.302 29.3333 18.8468 29.3333 12.363C29.3333 5.87906 21.9997 1.2808 16 7.51435C10.0002 1.2808 2.66663 5.87906 2.66663 12.363Z" fill="#737373"/>
<path d="M2.66663 12.363C2.66663 18.8468 8.02587 22.302 11.9489 25.3947C13.3333 26.486 14.6666 27.5135 16 27.5135C17.3333 27.5135 18.6666 26.486 20.051 25.3947C23.9741 22.302 29.3333 18.8468 29.3333 12.363C29.3333 5.87906 21.9997 1.2808 16 7.51435C10.0002 1.2808 2.66663 5.87906 2.66663 12.363Z" fill="url(#paint0_linear_152_403)"/>
<defs>
<linearGradient id="paint0_linear_152_403" x1="29.3333" y1="4.56006" x2="6.63548" y2="30.9297" gradientUnits="userSpaceOnUse">
<stop stop-color="#C874A9"/>
<stop offset="1" stop-color="#8874C8"/>
</linearGradient>
</defs>
</svg>
