<svg width="48" height="48" viewBox="0 0 48 48" fill="none" xmlns="http://www.w3.org/2000/svg">
<path d="M12.5199 42.7768H12C10.1144 42.7768 9.17158 42.7768 8.58578 42.191C8 41.6052 8 40.6624 8 38.7768V36.5528C8 35.5158 8 34.9974 8.26636 34.5344C8.53272 34.0712 8.93454 33.8376 9.7382 33.3702C15.0291 30.2928 22.543 28.5606 27.5582 31.5518C27.895 31.7528 28.1982 31.9954 28.457 32.2862C29.5732 33.54 29.492 35.4322 28.2056 36.555C27.9338 36.792 27.6444 36.972 27.3528 37.0344C27.5924 37.0066 27.822 36.9748 28.0412 36.9398C29.864 36.649 31.394 35.675 32.7948 34.6168L36.4092 31.8866C37.6834 30.924 39.5746 30.9238 40.849 31.886C41.9964 32.7524 42.3472 34.1788 41.6218 35.3414C40.776 36.6974 39.5842 38.432 38.4398 39.4918C37.2938 40.5532 35.5878 41.5008 34.195 42.173C32.652 42.9178 30.9476 43.3468 29.2138 43.6276C25.6976 44.1966 22.0332 44.1098 18.5527 43.3928C16.5851 42.9874 14.5416 42.7768 12.5199 42.7768Z" fill="url(#paint0_linear_50_4042)"/>
<path d="M21.7226 6.7267C22.7358 4.9089 23.2426 4 24 4C24.7574 4 25.2642 4.9089 26.2774 6.7267L26.5396 7.19698C26.8276 7.71354 26.9716 7.97182 27.196 8.14224C27.4206 8.31266 27.7002 8.37592 28.2592 8.50244L28.7684 8.61762C30.7362 9.06284 31.72 9.28546 31.954 10.0382C32.1882 10.7909 31.5174 11.5753 30.176 13.1439L29.8288 13.5498C29.4476 13.9955 29.257 14.2184 29.1714 14.4942C29.0856 14.7699 29.1144 15.0673 29.172 15.662L29.2244 16.2035C29.4272 18.2965 29.5288 19.343 28.9158 19.8082C28.303 20.2734 27.3818 19.8492 25.5394 19.0009L25.0628 18.7815C24.5392 18.5404 24.2774 18.4199 24 18.4199C23.7226 18.4199 23.4608 18.5404 22.9372 18.7815L22.4606 19.0009C20.6182 19.8492 19.6969 20.2734 19.0841 19.8082C18.4713 19.343 18.5727 18.2965 18.7755 16.2035L18.828 15.662C18.8856 15.0673 18.9144 14.7699 18.8287 14.4942C18.7429 14.2184 18.5523 13.9955 18.1711 13.5498L17.8241 13.1439C16.4826 11.5753 15.8119 10.7909 16.0459 10.0382C16.28 9.28546 17.2639 9.06284 19.2316 8.61762L19.7407 8.50244C20.2998 8.37592 20.5794 8.31266 20.804 8.14224C21.0284 7.97182 21.1724 7.71354 21.4604 7.19698L21.7226 6.7267Z" fill="url(#paint1_linear_50_4042)"/>
<path d="M38.8612 15.3633C39.368 14.4544 39.6212 14 40 14C40.3788 14 40.632 14.4545 41.1388 15.3633L41.2698 15.5985C41.4138 15.8568 41.4858 15.9859 41.598 16.0711C41.7102 16.1563 41.85 16.188 42.1296 16.2512L42.3842 16.3088C43.368 16.5314 43.86 16.6427 43.977 17.0191C44.094 17.3955 43.7588 17.7876 43.088 18.572L42.9144 18.7749C42.7238 18.9978 42.6286 19.1092 42.5856 19.2471C42.5428 19.385 42.5572 19.5336 42.586 19.831L42.6122 20.1018C42.7136 21.1482 42.7644 21.6714 42.458 21.904C42.1516 22.1366 41.691 21.9246 40.7698 21.5004L40.5314 21.3908C40.2696 21.2702 40.1388 21.21 40 21.21C39.8612 21.21 39.7304 21.2702 39.4686 21.3908L39.2302 21.5004C38.309 21.9246 37.8484 22.1366 37.542 21.904C37.2356 21.6714 37.2864 21.1482 37.3878 20.1018L37.414 19.831C37.4428 19.5336 37.4572 19.385 37.4144 19.2471C37.3714 19.1092 37.2762 18.9978 37.0856 18.7749L36.912 18.572C36.2414 17.7876 35.906 17.3955 36.023 17.0191C36.14 16.6427 36.632 16.5314 37.6158 16.3088L37.8704 16.2512C38.15 16.188 38.2898 16.1563 38.402 16.0711C38.5142 15.9859 38.5862 15.8568 38.7302 15.5985L38.8612 15.3633Z" fill="url(#paint2_linear_50_4042)"/>
<path d="M6.86127 15.3633C7.36793 14.4544 7.62127 14 8.00001 14C8.37875 14 8.63209 14.4545 9.13875 15.3633L9.26983 15.5985C9.41381 15.8568 9.48579 15.9859 9.59803 16.0711C9.71027 16.1563 9.85007 16.188 10.1296 16.2512L10.3842 16.3088C11.3681 16.5314 11.86 16.6427 11.977 17.0191C12.0941 17.3955 11.7587 17.7876 11.088 18.572L10.9144 18.7749C10.7238 18.9978 10.6285 19.1092 10.5857 19.2471C10.5428 19.385 10.5572 19.5336 10.586 19.831L10.6122 20.1018C10.7136 21.1482 10.7644 21.6714 10.4579 21.904C10.1515 22.1366 9.69095 21.9246 8.76975 21.5004L8.53141 21.3908C8.26963 21.2702 8.13875 21.21 8.00001 21.21C7.86127 21.21 7.73039 21.2702 7.46861 21.3908L7.23027 21.5004C6.30909 21.9246 5.84849 22.1366 5.54207 21.904C5.23565 21.6714 5.28637 21.1482 5.38777 20.1018L5.41401 19.831C5.44283 19.5336 5.45723 19.385 5.41435 19.2471C5.37149 19.1092 5.27619 18.9978 5.08557 18.7749L4.91205 18.572C4.24131 17.7876 3.90593 17.3955 4.02297 17.0191C4.14001 16.6427 4.63195 16.5314 5.61583 16.3088L5.87037 16.2512C6.14995 16.188 6.28975 16.1563 6.40199 16.0711C6.51423 15.9859 6.58623 15.8568 6.73019 15.5985L6.86127 15.3633Z" fill="url(#paint3_linear_50_4042)"/>
<defs>
<linearGradient id="paint0_linear_50_4042" x1="42" y1="30" x2="32.142" y2="53.9408" gradientUnits="userSpaceOnUse">
<stop stop-color="#C874A9"/>
<stop offset="1" stop-color="#8874C8"/>
</linearGradient>
<linearGradient id="paint1_linear_50_4042" x1="32" y1="4" x2="16" y2="20" gradientUnits="userSpaceOnUse">
<stop stop-color="#C874A9"/>
<stop offset="1" stop-color="#8874C8"/>
</linearGradient>
<linearGradient id="paint2_linear_50_4042" x1="43.9999" y1="14" x2="36" y2="21.9999" gradientUnits="userSpaceOnUse">
<stop stop-color="#C874A9"/>
<stop offset="1" stop-color="#8874C8"/>
</linearGradient>
<linearGradient id="paint3_linear_50_4042" x1="12" y1="14" x2="4.0001" y2="22" gradientUnits="userSpaceOnUse">
<stop stop-color="#C874A9"/>
<stop offset="1" stop-color="#8874C8"/>
</linearGradient>
</defs>
</svg>
