<svg width="132" height="48" viewBox="0 0 132 48" fill="none" xmlns="http://www.w3.org/2000/svg">
<g clip-path="url(#clip0_50_7839)">
<path fill-rule="evenodd" clip-rule="evenodd" d="M122.362 41.9626C122.362 42.7146 122.479 43.3919 122.702 44.0106C122.93 44.6186 123.237 45.1413 123.629 45.5733C124.022 46.0106 124.472 46.3466 124.986 46.5919C125.495 46.8319 126.036 46.9546 126.598 46.9546C127.16 46.9546 127.701 46.8319 128.21 46.5919C128.724 46.3519 129.169 46.0106 129.561 45.5733C129.954 45.1413 130.261 44.6186 130.489 44.0106C130.722 43.3972 130.834 42.7146 130.834 41.9626C130.834 41.2106 130.722 40.5332 130.489 39.9252C130.261 39.3119 129.954 38.7893 129.561 38.3519C129.169 37.9199 128.724 37.5786 128.21 37.3386C127.701 37.0986 127.16 36.9759 126.598 36.9759C126.036 36.9759 125.495 37.0986 124.986 37.3386C124.478 37.5786 124.022 37.9199 123.629 38.3519C123.237 38.7893 122.924 39.3119 122.702 39.9252C122.479 40.5332 122.362 41.2106 122.362 41.9626ZM131.745 41.9626C131.745 42.8212 131.602 43.6052 131.316 44.3252C131.035 45.0399 130.653 45.6479 130.176 46.1546C129.705 46.6613 129.153 47.0612 128.538 47.3439C127.923 47.6266 127.277 47.7653 126.598 47.7653C125.925 47.7653 125.278 47.6212 124.658 47.3439C124.038 47.0559 123.492 46.6613 123.014 46.1546C122.537 45.6479 122.161 45.0346 121.88 44.3252C121.594 43.6106 121.456 42.8266 121.456 41.9626C121.456 41.1092 121.594 40.3199 121.88 39.6106C122.161 38.8959 122.543 38.2879 123.014 37.7759C123.492 37.2692 124.038 36.8693 124.658 36.5866C125.278 36.3039 125.925 36.1599 126.598 36.1599C127.271 36.1599 127.918 36.3039 128.538 36.5866C129.153 36.8746 129.705 37.2692 130.176 37.7759C130.648 38.2826 131.035 38.8959 131.316 39.6106C131.602 40.3199 131.745 41.1039 131.745 41.9626ZM115.412 36.9759C114.851 36.9759 114.315 37.0986 113.801 37.3386C113.292 37.5786 112.841 37.9199 112.449 38.3519C112.057 38.7893 111.744 39.3119 111.521 39.9252C111.293 40.5332 111.182 41.2159 111.182 41.9626C111.182 42.7092 111.293 43.3919 111.521 44.0106C111.749 44.6186 112.057 45.1413 112.449 45.5733C112.841 46.0106 113.292 46.3466 113.801 46.5919C114.31 46.8319 114.851 46.9546 115.412 46.9546C116.367 46.9546 117.157 46.6666 117.787 46.0959C118.418 45.5199 118.89 44.7839 119.198 43.8719H120.099C119.918 44.4426 119.68 44.9653 119.394 45.4399C119.102 45.9199 118.763 46.3306 118.365 46.6719C117.973 47.0186 117.528 47.2906 117.035 47.4826C116.542 47.6746 116.001 47.7706 115.412 47.7706C114.739 47.7706 114.092 47.6266 113.472 47.3493C112.852 47.0613 112.306 46.6666 111.829 46.1599C111.357 45.6532 110.975 45.0399 110.694 44.3306C110.408 43.6159 110.27 42.8319 110.27 41.9679C110.27 41.1146 110.408 40.3253 110.694 39.6159C110.975 38.9013 111.357 38.2932 111.829 37.7812C112.306 37.2746 112.852 36.8746 113.472 36.5919C114.092 36.3092 114.739 36.1653 115.412 36.1653C116.001 36.1653 116.542 36.2613 117.035 36.4533C117.528 36.6453 117.968 36.9119 118.355 37.2586C118.736 37.6052 119.07 38.0159 119.351 38.4959C119.632 38.9706 119.855 39.4986 120.014 40.0639H119.113C118.837 39.1572 118.386 38.4159 117.766 37.8399C117.151 37.2639 116.372 36.9759 115.412 36.9759ZM107.121 36.2452H107.927V47.6746H107.026V38.6026L102.971 47.6746H102.419L98.3638 38.6026V47.6746H97.4626V36.2452H98.2684L102.69 46.1333L107.121 36.2452ZM88.5407 41.9626H91.6154C91.9759 41.9626 92.3045 41.8986 92.6173 41.7706C92.9248 41.6426 93.1898 41.4666 93.4178 41.2426C93.6457 41.0186 93.8207 40.7572 93.9479 40.4639C94.0751 40.1706 94.1334 39.8506 94.1334 39.5092C94.1334 39.1732 94.0698 38.8586 93.9479 38.5599C93.8207 38.2666 93.6457 38.0052 93.4178 37.7812C93.1898 37.5519 92.9248 37.3813 92.6173 37.2533C92.3098 37.1253 91.9759 37.0612 91.6154 37.0612H88.5407V41.9626ZM95.2149 47.6746H94.1334L91.4298 42.7733H88.5407V47.6746H87.6395V36.2452H91.6101C92.1031 36.2452 92.559 36.3306 92.9831 36.4959C93.4019 36.6666 93.7624 36.8959 94.0698 37.1893C94.3773 37.4879 94.6105 37.8346 94.7855 38.2346C94.9551 38.6346 95.0399 39.0559 95.0399 39.5039C95.0399 40.1813 94.8968 40.7306 94.6159 41.1466C94.3296 41.5626 94.0221 41.8879 93.6828 42.1173C93.2852 42.3839 92.8293 42.5706 92.331 42.6879L95.2149 47.6746ZM81.3363 37.7013L78.9879 43.7812H83.6795L81.3363 37.7013ZM86.1074 47.6746H85.1214L83.9498 44.5866H78.7175L77.546 47.6746H76.5493L80.9705 36.2452H81.6915L86.1074 47.6746ZM67.9879 36.2452V41.4132H74.1267V36.2452H75.0226V47.6746H74.1267V42.2346H67.9879V47.6746H67.092V36.2452H67.9879ZM61.3296 42.3252C61.6848 42.3252 62.024 42.2613 62.3421 42.1173C62.6655 41.9786 62.9412 41.7919 63.1744 41.5573C63.4077 41.3173 63.5932 41.0399 63.731 40.7199C63.8689 40.3946 63.9378 40.0532 63.9378 39.6959C63.9378 39.3332 63.8689 38.9919 63.731 38.6719C63.5932 38.3466 63.4077 38.0693 63.1744 37.8346C62.9412 37.5999 62.6655 37.4133 62.3421 37.2746C62.024 37.1359 61.6848 37.0666 61.3296 37.0666H58.6154V42.3306H61.3296V42.3252ZM61.3296 36.2452C61.8226 36.2452 62.2838 36.3306 62.7026 36.5173C63.1267 36.6986 63.5031 36.9439 63.8265 37.2533C64.1445 37.5679 64.3937 37.9306 64.5739 38.3573C64.7542 38.7786 64.839 39.2212 64.839 39.6959C64.839 40.1706 64.7489 40.6186 64.5739 41.0346C64.3937 41.4559 64.1445 41.8239 63.8265 42.1333C63.5031 42.4479 63.132 42.6879 62.7026 42.8693C62.2785 43.0506 61.8226 43.1359 61.3296 43.1359H58.6154V47.6746H57.7142V36.2452H61.3296ZM47.1701 36.2452H55.2862V38.7839H49.7836V40.5972H54.8356V43.1359H49.7836V45.1306H55.4665V47.6746H47.1701V36.2452ZM41.4872 41.3226C41.9431 41.3226 42.2983 41.1999 42.5527 40.9599C42.8072 40.7199 42.9291 40.4159 42.9291 40.0533C42.9291 39.6906 42.8019 39.3866 42.5527 39.1466C42.2983 38.9066 41.9431 38.7839 41.4872 38.7839H39.5045V41.3226H41.4872ZM41.4872 36.2452C42.0756 36.2452 42.611 36.3413 43.0987 36.5333C43.5865 36.7253 44.0053 36.9866 44.3551 37.3119C44.705 37.6372 44.9754 38.0212 45.1662 38.4639C45.3571 38.9066 45.4525 39.3759 45.4525 39.8719C45.4525 40.5119 45.3411 41.0506 45.1185 41.4879C44.8958 41.9253 44.6467 42.2773 44.3816 42.5493C44.1113 42.8213 43.8621 43.0186 43.6342 43.1413C43.4062 43.2639 43.2896 43.3226 43.2896 43.3226L45.813 47.6799H42.9291L40.8563 43.8719H39.5045V47.6799H36.891V36.2506H41.4872V36.2452ZM28.5045 45.4986L27.7836 47.6746H25.0799L29.1354 36.2452H31.8443L35.8997 47.6746H33.1961L32.4751 45.4986H28.5045ZM31.7489 43.2319L30.4872 39.4186L29.2255 43.2319H31.7489ZM21.7402 36.2452H24.0886V47.6746H21.4751V41.9573L18.8616 47.6746H17.2395L14.626 41.9573V47.6746H12.0125V36.2452H14.3609L18.0559 44.3199L21.7402 36.2452ZM3.61538 45.4986L2.89441 47.6746H0.190796L4.24621 36.2452H6.95513L11.0106 47.6746H8.30694L7.58597 45.4986H3.61538ZM6.85971 43.2319L5.59802 39.4186L4.33633 43.2319H6.85971Z" fill="white"/>
<path fill-rule="evenodd" clip-rule="evenodd" d="M43.3214 16.64C42.452 15.4667 42.6906 13.808 43.8568 12.928C43.9204 12.88 43.9947 12.832 44.0636 12.784C44.3127 11.8613 43.825 10.88 42.7277 10.2826C41.7151 9.77598 40.9783 8.76799 40.8723 7.55732C40.7026 5.69599 42.0703 4.04798 43.9204 3.88265C44.9118 3.79198 45.8342 4.14398 46.5127 4.76798C47.451 5.54132 48.9036 4.22399 48.8241 3.40799V3.39198C48.8135 3.29064 48.8081 3.20532 48.8134 3.14132C48.8028 1.86666 49.6828 0.719976 50.971 0.442643C53.7489 -0.149357 56.2245 0.442643 58.3132 1.49331C60.2376 2.45331 61.7802 3.77598 62.8935 4.82664C63.9855 5.86131 64.0385 7.58931 63.0101 8.69331C61.9816 9.79198 60.2587 9.84531 59.1667 8.81064C58.3291 8.02131 57.2 7.04532 55.9065 6.39998C54.7773 5.83465 53.4785 5.50399 52.0949 5.80265C51.3792 5.95732 50.6689 5.80798 50.091 5.45065L50.0433 5.42399L50.038 5.41865C48.7658 4.55998 47.6154 5.80798 47.5889 7.28532C47.5836 8.59732 46.8202 9.75464 45.6964 10.3093C44.8959 10.8213 45.0443 11.8987 45.6115 12.4213C46.3537 12.4693 47.0641 12.832 47.5465 13.4826C48.7339 15.0826 49.8525 16.1173 50.9286 16.688C51.8404 17.1733 52.7628 17.3227 53.7012 17.2053C52.2539 17.3813 51.2308 18.704 51.4057 20.16C51.5807 21.616 52.8954 22.6453 54.3426 22.4693C52.3653 22.7147 50.4144 22.4 48.4795 21.3707C46.7036 20.4213 44.986 18.8853 43.3214 16.64Z" fill="#FA853C"/>
<path fill-rule="evenodd" clip-rule="evenodd" d="M60.4231 13.5467C62.48 11.8827 64.5686 9.91469 66.7845 7.82935C67.9879 6.69869 69.2337 5.52536 69.4404 5.33336C70.5113 4.34669 72.1759 4.4107 73.1566 5.48803C74.1426 6.56536 74.0737 8.24002 73.0028 9.22668C71.7465 10.3894 71.158 10.9387 70.7127 11.36C70.7074 11.3814 70.7021 11.408 70.6968 11.4294C69.0216 13.6 69.5518 15.3867 71.985 15.1627C72.0433 15.152 72.0963 15.1467 72.1494 15.1467L72.1865 15.1414H72.1918C73.798 15.0187 75.2082 16.2134 75.3513 17.8347C75.4997 19.4667 74.3016 20.912 72.6795 21.056C71.0573 21.2054 69.6207 20 69.4775 18.368C69.4404 17.9734 69.4828 17.5947 69.5889 17.2427C70.172 15.344 68.3961 14.128 66.4824 15.2907C65.5335 16.144 64.611 16.944 63.7204 17.6694C64.8549 16.7574 65.0351 15.088 64.1233 13.952C63.2115 12.8107 61.5576 12.6294 60.4231 13.5467Z" fill="#8874C8"/>
<path fill-rule="evenodd" clip-rule="evenodd" d="M77.2492 6.38403C75.9133 7.07736 74.2752 6.54937 73.5861 5.20537C72.8969 3.86137 73.4217 2.21336 74.7576 1.52003C76.1731 0.784032 77.6256 0.368035 79.0622 0.240035C81.3364 0.032035 83.5152 0.538701 85.3759 1.58937C87.2314 2.64537 88.7793 4.24003 89.7972 6.21336C90.4598 7.49869 90.8945 8.94937 91.0376 10.5227C91.0429 10.5707 91.0482 10.624 91.0482 10.672C91.0429 10.624 91.0376 10.576 91.0376 10.528C90.9051 9.02936 89.5798 7.92003 88.0902 8.05336C86.6323 8.1867 85.5456 9.46137 85.6251 10.9227C85.5403 10.128 85.3123 9.38669 84.9731 8.72535C84.4535 7.71735 83.669 6.9067 82.72 6.36803C81.7764 5.8347 80.6844 5.57336 79.5552 5.68003C78.8131 5.74402 78.0338 5.97336 77.2492 6.38403Z" fill="#FDC900"/>
<path fill-rule="evenodd" clip-rule="evenodd" d="M85.6304 11.0187C85.4979 9.51472 86.5952 8.18672 88.0902 8.05339C89.5851 7.92006 90.9051 9.02405 91.0376 10.528C91.3027 13.4347 90.1841 16.416 88.2757 18.7094C86.3938 20.976 83.6955 22.6347 80.7639 22.9707C79.2689 23.1361 77.9277 22.0534 77.7634 20.5494C77.5991 19.0454 78.6752 17.6961 80.1702 17.5307C81.6492 17.3601 83.0646 16.4534 84.1036 15.1947C85.1427 13.9467 85.7576 12.4214 85.6304 11.0187Z" fill="#DD2B1C"/>
<path fill-rule="evenodd" clip-rule="evenodd" d="M54.3374 22.4585C52.8954 22.6345 51.5807 21.6052 51.4005 20.1492C51.2256 18.6932 52.254 17.3759 53.6959 17.1945C54.6395 17.0772 55.6415 16.6986 56.7017 16.1226C57.8839 15.4772 59.1244 14.5919 60.4232 13.5412C61.5523 12.6292 63.2116 12.8052 64.1181 13.9465C65.0299 15.0825 64.8497 16.7519 63.7152 17.6639C62.1831 18.9065 60.6829 19.9679 59.188 20.7839C57.5764 21.6692 55.9648 22.2559 54.3374 22.4585Z" fill="#27B210"/>
</g>
<defs>
<clipPath id="clip0_50_7839">
<rect width="132" height="48" fill="white"/>
</clipPath>
</defs>
</svg>
