<svg width="40" height="40" viewBox="0 0 40 40" fill="none" xmlns="http://www.w3.org/2000/svg">
<rect width="40" height="40" rx="20" fill="#F3F3F3"/>
<g clip-path="url(#clip0_155_585)">
<path fill-rule="evenodd" clip-rule="evenodd" d="M6.29305 22.6758C5.76759 21.9834 5.91177 21.0047 6.61666 20.4855C6.65511 20.4571 6.69996 20.4288 6.74161 20.4005C6.8922 19.8561 6.59744 19.277 5.9342 18.9245C5.32223 18.6256 4.87688 18.0308 4.81279 17.3164C4.71027 16.2181 5.5369 15.2457 6.65511 15.1481C7.25426 15.0946 7.81176 15.3024 8.22187 15.6705C8.78898 16.1269 9.66689 15.3496 9.61883 14.8681V14.8586C9.61242 14.7988 9.60921 14.7485 9.61242 14.7107C9.60601 13.9586 10.1379 13.282 10.9165 13.1183C12.5954 12.769 14.0916 13.1183 15.354 13.7383C16.5171 14.3047 17.4495 15.0852 18.1223 15.7052C18.7823 16.3157 18.8144 17.3353 18.1928 17.9867C17.5712 18.635 16.5299 18.6665 15.8699 18.056C15.3636 17.5902 14.6812 17.0143 13.8994 16.6335C13.2169 16.2999 12.432 16.1048 11.5957 16.2811C11.1632 16.3723 10.7338 16.2842 10.3846 16.0734L10.3558 16.0576L10.3526 16.0545C9.58359 15.5478 8.88831 16.2842 8.87229 17.1559C8.86908 17.9301 8.40771 18.613 7.72846 18.9403C7.24465 19.2424 7.33436 19.8781 7.67719 20.1865C8.12576 20.2148 8.55509 20.4288 8.84666 20.8127C9.56436 21.7568 10.2404 22.3674 10.8908 22.7041C11.4419 22.9905 11.9994 23.0786 12.5665 23.0094C11.6918 23.1132 11.0735 23.8937 11.1792 24.7528C11.2849 25.6119 12.0795 26.2193 12.9542 26.1154C11.7591 26.2602 10.58 26.0745 9.41057 25.4672C8.33722 24.907 7.29912 24.0007 6.29305 22.6758Z" fill="#FA853C"/>
<path fill-rule="evenodd" clip-rule="evenodd" d="M16.6294 20.8505C17.8726 19.8687 19.1349 18.7074 20.4742 17.4769C21.2015 16.8098 21.9545 16.1174 22.0794 16.0042C22.7266 15.422 23.7327 15.4597 24.3255 16.0954C24.9214 16.7311 24.8798 17.7193 24.2325 18.3015C23.4732 18.9875 23.1175 19.3116 22.8484 19.5603C22.8452 19.5728 22.842 19.5886 22.8388 19.6012C21.8263 20.882 22.1467 21.9362 23.6174 21.8041C23.6526 21.7978 23.6847 21.7946 23.7167 21.7946L23.7391 21.7915H23.7423C24.7131 21.7191 25.5654 22.424 25.6519 23.3807C25.7416 24.3437 25.0175 25.1965 24.0371 25.2815C23.0567 25.3696 22.1884 24.6584 22.1019 23.6954C22.0794 23.4625 22.1051 23.2391 22.1691 23.0314C22.5216 21.9111 21.4482 21.1936 20.2916 21.8796C19.7181 22.3831 19.1606 22.8552 18.6223 23.2832C19.308 22.745 19.4169 21.76 18.8658 21.0897C18.3147 20.4162 17.3151 20.3092 16.6294 20.8505Z" fill="#8874C8"/>
<path fill-rule="evenodd" clip-rule="evenodd" d="M26.7989 16.6241C25.9915 17.0332 25.0015 16.7217 24.585 15.9286C24.1684 15.1356 24.4856 14.1632 25.293 13.7541C26.1485 13.3198 27.0264 13.0743 27.8947 12.9988C29.2692 12.8761 30.5861 13.175 31.7107 13.795C32.8321 14.4181 33.7677 15.359 34.3829 16.5234C34.7834 17.2818 35.0461 18.1378 35.1326 19.0662C35.1358 19.0945 35.139 19.126 35.139 19.1543C35.1358 19.126 35.1326 19.0977 35.1326 19.0693C35.0525 18.185 34.2515 17.5305 33.3512 17.6091C32.4701 17.6878 31.8132 18.4399 31.8613 19.3022C31.81 18.8333 31.6723 18.3959 31.4672 18.0057C31.1532 17.4109 30.679 16.9325 30.1055 16.6147C29.5352 16.3 28.8751 16.1458 28.1927 16.2087C27.7441 16.2465 27.2731 16.3818 26.7989 16.6241Z" fill="#FDC900"/>
<path fill-rule="evenodd" clip-rule="evenodd" d="M31.8644 19.359C31.7843 18.4715 32.4475 17.6879 33.3511 17.6092C34.2546 17.5305 35.0524 18.182 35.1325 19.0694C35.2927 20.7845 34.6167 22.5437 33.4632 23.8969C32.3258 25.2344 30.6949 26.2131 28.9231 26.4114C28.0196 26.5089 27.209 25.8701 27.1096 24.9826C27.0103 24.0952 27.6607 23.299 28.5643 23.2014C29.4582 23.1007 30.3136 22.5657 30.9416 21.823C31.5696 21.0866 31.9413 20.1866 31.8644 19.359Z" fill="#DD2B1C"/>
<path fill-rule="evenodd" clip-rule="evenodd" d="M12.9511 26.1093C12.0796 26.2131 11.285 25.6058 11.176 24.7466C11.0703 23.8875 11.6919 23.1102 12.5634 23.0032C13.1337 22.934 13.7392 22.7105 14.38 22.3707C15.0945 21.9899 15.8443 21.4675 16.6293 20.8475C17.3117 20.3094 18.3146 20.4132 18.8625 21.0867C19.4136 21.757 19.3046 22.742 18.619 23.2801C17.693 24.0134 16.7863 24.6396 15.8827 25.1211C14.9087 25.6435 13.9347 25.9897 12.9511 26.1093Z" fill="#27B210"/>
</g>
<defs>
<clipPath id="clip0_155_585">
<rect width="31.4286" height="13.5714" fill="white" transform="translate(4.28564 12.8572)"/>
</clipPath>
</defs>
</svg>
