<svg width="48" height="48" viewBox="0 0 48 48" fill="none" xmlns="http://www.w3.org/2000/svg">
<path d="M43.974 37.4601C43.8818 38.0717 43.649 38.6536 43.294 39.1601C42.9407 39.6577 42.4727 40.063 41.9296 40.3415C41.3865 40.62 40.7843 40.7635 40.174 40.7601H36.872C36.6371 40.7594 36.4058 40.7028 36.1971 40.595C35.9885 40.4872 35.8085 40.3312 35.672 40.1401C35.534 39.9491 35.4422 39.7286 35.404 39.496C35.3659 39.2635 35.3823 39.0252 35.452 38.8001C36.192 36.4401 36.032 33.7801 29.33 29.5201C29.0569 29.3412 28.8477 29.0801 28.7327 28.7745C28.6176 28.4689 28.6027 28.1347 28.69 27.8201C28.7837 27.5102 28.9739 27.2383 29.2329 27.044C29.492 26.8497 29.8062 26.7433 30.13 26.7401C32.9905 26.779 35.7822 27.6233 38.1848 29.1763C40.5875 30.7292 42.5038 32.9279 43.714 35.5201C43.96 36.1352 44.0493 36.8019 43.974 37.4601ZM38.972 15.4001C38.9667 17.7433 38.0334 19.989 36.3763 21.6458C34.7192 23.3025 32.4732 24.2353 30.13 24.2401C29.8675 24.2353 29.6107 24.1626 29.3846 24.0291C29.1585 23.8956 28.9709 23.7058 28.84 23.4782C28.7091 23.2506 28.6393 22.993 28.6376 22.7305C28.6358 22.4679 28.7021 22.2094 28.83 21.9801C30.0539 20.022 30.7029 17.7593 30.7029 15.4501C30.7029 13.1409 30.0539 10.8782 28.83 8.92009C28.6731 8.69591 28.5805 8.4331 28.5623 8.16009C28.5441 7.88709 28.6008 7.61429 28.7265 7.37123C28.8521 7.12817 29.0419 6.92411 29.2751 6.78114C29.5084 6.63816 29.7764 6.56172 30.05 6.56009C31.2209 6.55711 32.3801 6.79327 33.4566 7.25411C34.533 7.71494 35.504 8.39074 36.31 9.24009C37.9552 10.9013 38.8824 13.1421 38.892 15.4801L38.972 15.4001Z" fill="url(#paint0_linear_104_35)"/>
<path d="M33.35 37.4C33.4309 38.379 33.2381 39.3613 32.7931 40.2372C32.3481 41.1131 31.6685 41.848 30.83 42.36C29.994 42.874 29.03 43.144 28.05 43.14H9.30399C8.32271 43.1444 7.35976 42.8742 6.52399 42.36C5.68361 41.8511 5.00322 41.1162 4.56046 40.2392C4.11771 39.3621 3.93043 38.3783 4.01999 37.4C4.09255 36.4238 4.43917 35.4879 5.01999 34.7C6.61462 32.5783 8.66843 30.8448 11.0277 29.6291C13.387 28.4134 15.9907 27.7471 18.644 27.68C21.3064 27.7328 23.9218 28.3905 26.2926 29.6032C28.6633 30.816 30.7271 32.552 32.328 34.68C32.9101 35.4764 33.2648 36.4171 33.35 37.4ZM28.49 14.64C28.4847 17.24 27.4506 19.7323 25.6136 21.5723C23.7766 23.4123 21.286 24.4505 18.686 24.46C17.2383 24.4564 15.8094 24.1323 14.5019 23.5111C13.1943 22.8898 12.0405 21.9867 11.1233 20.8667C10.2062 19.7467 9.54836 18.4374 9.19714 17.033C8.84593 15.6286 8.81002 14.1639 9.09199 12.744C9.37516 11.3237 9.96959 9.98382 10.8325 8.82075C11.6955 7.65769 12.8054 6.70034 14.0826 6.01757C15.3598 5.3348 16.7724 4.94358 18.2189 4.87206C19.6654 4.80055 21.1097 5.05051 22.448 5.60396C24.2378 6.34293 25.7686 7.59557 26.8471 9.20376C27.9256 10.8119 28.5036 12.7036 28.508 14.64H28.49Z" fill="url(#paint1_linear_104_35)"/>
<defs>
<linearGradient id="paint0_linear_104_35" x1="43.9999" y1="6.56006" x2="18.3471" y2="18.142" gradientUnits="userSpaceOnUse">
<stop stop-color="#C874A9"/>
<stop offset="1" stop-color="#8874C8"/>
</linearGradient>
<linearGradient id="paint1_linear_104_35" x1="33.368" y1="4.86011" x2="-3.60645" y2="33.2283" gradientUnits="userSpaceOnUse">
<stop stop-color="#C874A9"/>
<stop offset="1" stop-color="#8874C8"/>
</linearGradient>
</defs>
</svg>
