<svg width="31" height="51" viewBox="0 0 31 51" fill="none" xmlns="http://www.w3.org/2000/svg">
<path d="M29.232 46.536V51H4.824V46.536H15.048V15.72C14.664 16.296 14.016 16.92 13.104 17.592C12.192 18.264 11.136 18.888 9.936 19.464C8.784 20.04 7.632 20.52 6.48 20.904C5.328 21.288 4.272 21.48 3.312 21.48V16.728C4.416 16.728 5.616 16.416 6.912 15.792C8.208 15.168 9.456 14.448 10.656 13.632C11.856 12.816 12.864 12.048 13.68 11.328C14.496 10.608 14.952 10.128 15.048 9.888H20.088V46.536H29.232Z" fill="#151616"/>
</svg>
