<svg width="21" height="20" viewBox="0 0 21 20" fill="none" xmlns="http://www.w3.org/2000/svg">
<path d="M8.69808 4.43006L9.23892 5.39917C9.727 6.27374 9.53108 7.42102 8.76233 8.18975C8.76233 8.18975 7.82998 9.12225 9.5205 10.8128C11.2105 12.5028 12.1436 11.571 12.1436 11.571C12.9123 10.8023 14.0596 10.6063 14.9342 11.0944L15.9032 11.6353C17.2239 12.3723 17.3798 14.2243 16.2191 15.3851C15.5216 16.0826 14.6671 16.6253 13.7225 16.6611C12.1324 16.7214 9.432 16.319 6.72317 13.6102C4.01436 10.9013 3.61192 8.20094 3.67221 6.61083C3.70802 5.66625 4.25075 4.81178 4.94826 4.11428C6.10905 2.95349 7.96106 3.10945 8.69808 4.43006Z" fill="white"/>
</svg>
