<svg width="20" height="20" viewBox="0 0 20 20" fill="none" xmlns="http://www.w3.org/2000/svg">
<path fill-rule="evenodd" clip-rule="evenodd" d="M9.56118 18.4207L9.55939 18.4194L9.55496 18.4159L9.53932 18.4036C9.52589 18.3929 9.50654 18.3777 9.48161 18.3577C9.43189 18.3179 9.35996 18.2598 9.26911 18.1848C9.08746 18.0349 8.82968 17.8171 8.52103 17.5428C7.90476 16.995 7.08096 16.2172 6.25483 15.2993C5.43077 14.3836 4.5907 13.3135 3.95337 12.1805C3.31976 11.0541 2.85718 9.81374 2.85718 8.57137C2.85718 6.67696 3.60973 4.86013 4.94927 3.52057C6.28882 2.18102 8.10564 1.42847 10 1.42847C11.8945 1.42847 13.7112 2.18102 15.0508 3.52057C16.3903 4.86013 17.1429 6.67696 17.1429 8.57137C17.1429 9.81374 16.6803 11.0541 16.0467 12.1805C15.4094 13.3135 14.5693 14.3836 13.7452 15.2993C12.9191 16.2172 12.0953 16.995 11.479 17.5428C11.1704 17.8171 10.9126 18.0349 10.731 18.1848C10.6401 18.2598 10.5682 18.3179 10.5185 18.3577C10.4935 18.3777 10.4742 18.3929 10.4607 18.4036L10.4451 18.4159L10.4407 18.4194L10.4393 18.4204C10.4393 18.4204 10.4385 18.421 10 17.8571L10.4385 18.421C10.1806 18.6216 9.81911 18.6214 9.56118 18.4207ZM10 17.8571L9.56118 18.4207C9.56118 18.4207 9.56153 18.421 10 17.8571ZM12.1429 8.57137C12.1429 9.75488 11.1835 10.7142 10 10.7142C8.81653 10.7142 7.85718 9.75488 7.85718 8.57137C7.85718 7.3879 8.81653 6.4285 10 6.4285C11.1835 6.4285 12.1429 7.3879 12.1429 8.57137Z" fill="#151616"/>
</svg>
